<svg xmlns="http://www.w3.org/2000/svg" width="21" height="21" viewBox="0 0 21 21">
  <path fill="#FFF" d="M16,16 C14.89,16 14,16.89 14,18 C14,19.1 14.9,20 16,20 C17.1,20 18,19.1 18,18 C18,17.469567 17.7892863,16.9608592 17.4142136,16.5857864 C17.0391408,16.2107137 16.530433,16 16,16 M0,0 L0,2 L2,2 L5.59999999,9.59000002 L4.23999999,12.04 C3.90432289,12.6609032 3.91966461,13.412534 4.28039839,14.0192226 C4.64113216,14.6259112 5.29416909,14.9983718 6,15 L18,15 L18,13 L6.42,13 C6.28000001,13 6.16999999,12.89 6.16999999,12.75 C6.16999999,12.7 6.18,12.66 6.19999999,12.63 L7.09999999,11 L14.55,11 C15.3,11 15.96,10.58 16.3,9.97000001 L19.88,3.5 C19.95,3.34000001 20,3.17000002 20,3 C20,2.44999999 19.55,2 19,2 L4.20999999,2 L3.27,0 M5.99999999,16 C4.89,16 3.99999999,16.89 3.99999999,18 C3.99999999,19.1 4.89999999,20 5.99999999,20 C7.10000002,20 7.99999999,19.1 7.99999999,18 C7.99999999,16.8954305 7.1045695,16 5.99999999,16 L5.99999999,16 Z" transform="translate(.333 .667)"/>
</svg>
