<svg xmlns="http://www.w3.org/2000/svg" width="24" height="24" viewBox="0 0 24 24">
  <g fill="none">
    <path fill="#3C599B" d="M12.8695207,24 L11.1304793,24 C5.00871568,24 0,18.9912843 0,12.8695207 L0,11.1304793 C0,5.00871568 5.00871568,0 11.1304793,0 L12.8695207,0 C18.9912843,0 24,5.00871568 24,11.1304793 L24,12.8695207 C24,18.9912843 18.9912569,24 12.8695207,24 Z"/>
    <path fill="#FFF" d="M12.8021073,18.223199 L10.216656,18.223199 L10.216656,11.9726124 L8.92447859,11.9726124 L8.92447859,9.81776811 L10.216656,9.81776811 L10.216656,8.52476828 C10.216656,6.76796195 10.9461958,5.72199846 13.0181921,5.72199846 L14.7436357,5.72199846 L14.7436357,7.87678798 L13.6657338,7.87678798 C12.8588015,7.87678798 12.8051504,8.17816077 12.8051504,8.73981135 L12.8021621,9.81776811 L14.7561644,9.81776811 L14.5273042,11.9726124 L12.8021621,11.9726124 L12.8021621,18.223199 L12.8021073,18.223199 Z"/>
  </g>
</svg>
