<svg xmlns="http://www.w3.org/2000/svg" width="24" height="24" viewBox="0 0 24 24">
  <path fill="#B82E2E" d="M23.4172281,18.5856985 L21.7803668,16.9491678 C21.3918522,16.5606605 21.0735403,15.7929461 21.0735403,15.2424358 L21.0735403,12.9278924 C21.0735403,11.8268718 20.1741065,10.9274549 19.0733653,10.9268549 L16.7578784,10.9268549 C16.2079578,10.9268549 15.439329,10.6079489 15.0508144,10.2197416 L13.414253,8.58321094 C12.6366239,7.80559635 11.3633761,7.80559635 10.585747,8.58321094 L8.94918559,10.2209416 C8.56037101,10.6094489 7.79084216,10.9274549 7.24212158,10.9274549 L4.92753478,10.9274549 C3.82799355,10.9274549 2.92735978,11.8268718 2.92735978,12.9278924 L2.92735978,15.2424358 C2.92735978,15.7908461 2.60904784,16.5609605 2.22053327,16.9491678 L0.583671888,18.5856985 C-0.194557296,19.3633131 -0.194557296,20.6365369 0.583671888,21.4153515 L2.22053327,23.0518822 C2.60934785,23.4403895 2.92735978,24.2102039 2.92735978,24.7586142 L2.92735978,27.0731576 C2.92735978,28.1729782 3.82799355,29.0735951 4.92753478,29.0735951 L7.24212158,29.0735951 C7.7920422,29.0735951 8.56067103,29.3919011 8.94918559,29.7801084 L10.585747,31.4172391 C11.3633761,32.1942536 12.6366239,32.1942536 13.414253,31.4172391 L15.0508144,29.7801084 C15.439629,29.3916011 16.2079578,29.0735951 16.7578784,29.0735951 L19.0733653,29.0735951 C20.1741065,29.0735951 21.0735403,28.1729782 21.0735403,27.0731576 L21.0735403,24.7586142 C21.0735403,24.2078039 21.3921522,23.4400895 21.7803668,23.0518822 L23.4172281,21.4153515 C24.1942573,20.6365369 24.1942573,19.3633131 23.4172281,18.5856985 Z M10.4123405,24.5003094 L5.99947498,20.0869266 L7.41372801,18.6730001 L10.4126405,21.6718563 L16.585972,15.5001406 L17.999925,16.9140671 L10.4123405,24.5003094 Z" transform="translate(0 -8)"/>
</svg>
