<svg xmlns="http://www.w3.org/2000/svg" width="24" height="24" viewBox="0 0 24 24">
  <g fill="none">
    <path fill="#181818" d="M12.8695207,24 L11.1304793,24 C5.00871568,24 0,18.9912843 0,12.8695207 L0,11.1304793 C0,5.00871568 5.00871568,0 11.1304793,0 L12.8695207,0 C18.9912843,0 24,5.00871568 24,11.1304793 L24,12.8695207 C24,18.9912843 18.9912569,24 12.8695207,24 Z"/>
    <path fill="#FFF" d="M11.9499403,8.839547 C10.1893233,8.839547 8.76207228,10.2667979 8.76207228,12.027415 C8.76207228,13.788032 10.1893232,15.2152829 11.9499403,15.2152829 C13.7105573,15.2152829 15.1378082,13.788032 15.1378082,12.027415 C15.1378082,10.266798 13.7105573,8.839547 11.9499403,8.839547 Z M11.9499403,14.1018238 C10.8042959,14.1018238 9.87553145,13.1730867 9.87553145,12.027415 C9.87553145,10.8817432 10.8042685,9.95300617 11.9499403,9.95300617 C13.095612,9.95300617 14.0243491,10.8817432 14.0243491,12.027415 C14.0243491,13.1730867 13.095612,14.1018238 11.9499403,14.1018238 Z M18.1291657,9.32265369 C18.1291657,7.37948035 16.5979023,5.84821699 14.654729,5.84821699 C14.654729,5.84821699 13.2803615,5.80424338 11.9499677,5.80424338 C10.6195738,5.80424338 9.28918,5.84821699 9.28918,5.84821699 C7.34600667,5.84821699 5.77074228,7.42348138 5.77074228,9.36665469 C5.77074228,9.36665469 5.72676866,10.6105269 5.72676866,11.8955215 C5.72676866,13.2684086 5.77074228,14.6882575 5.77074228,14.6882575 C5.77074228,16.6314308 7.34600667,18.2066952 9.28918,18.2066952 C9.28918,18.2066952 10.5330522,18.2506688 11.8180468,18.2506688 C13.1909339,18.2506688 14.6547564,18.2066952 14.6547564,18.2066952 C16.5979297,18.2066952 18.1291931,16.6754318 18.1291931,14.7322585 C18.1291931,14.7322585 18.1731667,13.3283925 18.1731667,11.9834962 C18.1731667,10.6678516 18.1291657,9.32265369 18.1291657,9.32265369 Z M17.0169128,14.5171332 C17.0169128,16.1105463 16.033099,17.0943601 14.4396859,17.0943601 C14.4396859,17.0943601 12.9675567,17.1304382 11.8417882,17.1304382 C10.7880937,17.1304382 9.50422304,17.0943601 9.50422304,17.0943601 C7.91083736,17.0943601 6.88302258,16.0665179 6.88302258,14.4731596 C6.88302258,14.4731596 6.84694447,13.045004 6.84694447,11.9192355 C6.84694447,10.865541 6.88302258,9.53769673 6.88302258,9.53769673 C6.88302258,7.94428362 7.91086478,6.96046988 9.50422304,6.96046988 C9.50422304,6.96046988 10.8590162,6.92439177 11.9499677,6.92439177 C13.0409191,6.92439177 14.4396859,6.96046988 14.4396859,6.96046988 C16.033099,6.96046988 17.0169128,7.94428362 17.0169128,9.53769673 C17.0169128,9.53769673 17.0529909,10.9125851 17.0529909,11.9913369 C17.0529909,13.094159 17.0169128,14.5171332 17.0169128,14.5171332 Z M15.2903451,7.95489323 C14.864947,7.95489323 14.5200666,8.30147332 14.5200666,8.72898242 C14.5200666,9.15649153 14.864947,9.5030442 15.2903451,9.5030442 C15.7157433,9.5030442 16.0605962,9.15649153 16.0605962,8.72898242 C16.0605962,8.3014459 15.7157433,7.95489323 15.2903451,7.95489323 Z"/>
  </g>
</svg>
