<svg xmlns="http://www.w3.org/2000/svg" width="24" height="24" viewBox="0 0 24 24">
  <g fill="none">
    <path fill="#CA242D" d="M12.8695207,24 L11.1304793,24 C5.00871568,24 0,18.9912843 0,12.8695207 L0,11.1304793 C0,5.00871568 5.00871568,0 11.1304793,0 L12.8695207,0 C18.9912843,0 24,5.00871568 24,11.1304793 L24,12.8695207 C24,18.9912843 18.9912569,24 12.8695207,24 Z"/>
    <path fill="#FFF" d="M8.31457767,13.0125995 C8.62107708,13.1833948 8.81383177,13.2744947 8.89909232,12.975178 C8.98432546,12.6758613 9.0086974,12.5760982 9.04521414,12.3017566 C9.08175829,12.0273876 9.02424169,12.0183406 8.82603143,11.7405721 C8.59467647,11.4163352 8.21445819,10.4713137 8.71645377,9.04688645 C9.30096842,7.38828055 10.9083357,6.68991151 12.3695813,6.80214842 C13.8308542,6.91438534 15.1444701,7.68216908 15.182522,9.6454924 C15.2189839,11.5282705 14.5858351,12.6010733 14.3057638,12.9377566 C14.025665,13.2744673 13.2756461,14.0363294 12.3330645,13.6112054 C11.1579491,13.0811917 11.7850666,11.9401257 11.8946991,11.4787043 C12.0042767,11.0172829 12.5332212,9.97663787 12.2600036,9.0843353 C12.0785165,8.49159614 11.2367946,8.23584186 10.7987307,8.56057223 C10.1594409,9.03444005 10.0083296,9.49687581 9.92197242,10.1318889 C9.82075633,10.8760683 10.1776993,11.5909686 10.1776993,11.5909686 C10.1776993,11.5909686 9.42389717,14.6465319 9.26439685,15.4818387 C9.05130025,16.5979845 8.97544303,17.3257698 9.19133595,18.3251827 C9.24375339,18.5677778 9.37076694,18.650434 9.52012374,18.4374196 C9.87547664,17.9306812 10.5247455,16.9035244 10.7987307,15.7063125 C10.9949671,14.848964 11.2005794,14.0601804 11.2005794,14.0601804 C11.2005794,14.0601804 11.6754889,14.8832602 12.6253356,14.9954697 C13.5751547,15.1077066 14.6101797,14.9705221 15.7304925,13.7608638 C16.850778,12.5512055 17.0778562,10.2216455 16.9360386,9.23396625 C16.7533726,7.96193889 15.6919197,6.00908806 13.3924613,5.60499134 C10.8304224,5.1547278 9.37306982,6.21481001 9.0086974,6.50288655 C8.31457767,7.05159725 7.16435506,8.137943 7.07251489,9.94480908 C6.95685112,12.2206905 7.90058416,12.781875 8.31457767,13.0125995 Z"/>
  </g>
</svg>
