<svg xmlns="http://www.w3.org/2000/svg" width="24" height="24" viewBox="0 0 24 24">
  <g fill="none">
    <path fill="#5EAADE" d="M12.8695207,24 L11.1304793,24 C5.00871568,24 0,18.9912843 0,12.8695207 L0,11.1304793 C0,5.00871568 5.00871568,0 11.1304793,0 L12.8695207,0 C18.9912843,0 24,5.00871568 24,11.1304793 L24,12.8695207 C24,18.9912843 18.9912569,24 12.8695207,24 Z"/>
    <path fill="#FFF" d="M18.3766132,8.07837026 C17.9055143,8.28735461 17.3989678,8.42881586 16.8672544,8.49228154 C17.4099612,8.16703031 17.8267785,7.65187551 18.0227681,7.03805426 C17.5149606,7.33945448 16.9527343,7.55808891 16.3540735,7.67589104 C15.8749695,7.16495817 15.1918705,6.84595753 14.4359849,6.84595753 C12.9847733,6.84595753 11.8083419,8.02255336 11.8083419,9.47414882 C11.8083419,9.68017234 11.8313979,9.88087738 11.8764407,10.0731934 C9.69237201,9.96361574 7.75635398,8.91718622 6.46020145,7.32714517 C6.23413759,7.71534119 6.10449217,8.16672873 6.10449217,8.64846465 C6.10449217,9.56014959 6.56840834,10.3646694 7.2734118,10.8359328 C6.84269516,10.8222802 6.43744701,10.7040942 6.08332782,10.5072273 C6.08305367,10.5181933 6.08305367,10.5291867 6.08305367,10.5404268 C6.08305367,11.8137975 6.98865249,12.8760455 8.19079907,13.1175166 C7.97032785,13.1775554 7.73815043,13.2098502 7.49862581,13.2098502 C7.32909161,13.2098502 7.16460177,13.1933464 7.00419678,13.1625045 C7.33844014,14.2067957 8.30884797,14.9666291 9.45876901,14.9877935 C8.55958529,15.6929066 7.42657928,16.1130137 6.19526314,16.1130137 C5.98309864,16.1130137 5.7739224,16.1006769 5.56850202,16.076305 C6.7314726,16.8218552 8.11255673,17.2572324 9.59669374,17.2572324 C14.4297891,17.2572324 17.0729489,13.2522612 17.072949,9.77900333 C17.072949,9.66487479 17.0705365,9.5515687 17.0654921,9.43875609 C17.579002,9.06829756 18.024413,8.60561504 18.3766132,8.07837026 Z"/>
  </g>
</svg>
