<svg xmlns="http://www.w3.org/2000/svg" width="16" height="16" viewBox="0 0 16 16">
  <path d="M11.2112487,6.8296324 L7.87996885,10.1616064 L5.68882962,7.97037582 C5.53281288,7.81437734 5.27921489,7.81437734 5.12319815,7.97037582 C4.96718142,8.12641084 4.96718142,8.38002709 5.12319815,8.53602556 L7.31444699,10.7272013 L6.68645265,11.3551774 C6.53041764,11.5112124 6.53041764,11.7648469 6.68645265,11.9208271 C6.84245113,12.0767525 7.09599432,12.0767525 7.25199279,11.9208271 L7.87996885,11.2928511 L8.51764458,11.9304172 C8.67356999,12.0863974 8.92718624,12.0863974 9.08320298,11.9304172 C9.23921972,11.7744005 9.23921972,11.5207659 9.08320298,11.3648223 L8.44563685,10.7272013 L11.7768071,7.39603109 C11.9328238,7.24001436 11.9328238,6.98639811 11.7768071,6.83038135 C11.6207904,6.6735974 11.3671741,6.6735974 11.2112487,6.8296324 L11.2112487,6.8296324 Z M7.99998173,2 C3.58160807,2 0,5.58158981 0,9.99998173 C0,14.4183554 3.58158981,17.9999817 7.99998173,17.9999817 C12.4183919,17.9999817 16,14.4183737 16,9.99998173 C16,5.58158981 12.4183919,2 7.99998173,2 L7.99998173,2 Z M8.39996986,17.1735917 L8.39996986,15.1999552 C8.39996986,14.9791827 8.22079081,14.7999854 7.99998173,14.7999854 C7.77919091,14.7999854 7.60001186,14.9791827 7.60001186,15.1999552 L7.60001186,17.1735917 C3.96880943,16.9711773 1.011177,14.0487632 0.82235307,10.3999516 L2.80002648,10.3999516 C3.02081729,10.3999516 3.19999634,10.2207725 3.19999634,9.99998173 C3.19999634,9.77919091 3.02081729,9.60001186 2.80002648,9.60001186 L0.8264083,9.60001188 C1.04645017,5.97677376 3.99038251,3.02957168 7.60003012,2.82394231 L7.60003012,4.80000823 C7.60003012,5.02079905 7.77920918,5.1999781 7.99999999,5.1999781 C8.22082735,5.1999781 8.39998812,5.02078079 8.39998812,4.80000823 L8.39998812,2.82478258 C12.0104577,3.03041195 14.9543901,5.97761405 15.1744502,9.60001188 L13.1999735,9.60001188 C12.9791644,9.60001188 12.8000036,9.77920919 12.8000036,9.99998175 C12.8000036,10.2207543 12.9791827,10.3999516 13.1999735,10.3999516 L15.1776469,10.3999516 C14.9888047,14.0487632 12.0311906,16.9711773 8.39996986,17.1735917 L8.39996986,17.1735917 Z" transform="translate(0 -2)"/>
</svg>
