<svg xmlns="http://www.w3.org/2000/svg" width="24" height="24" viewBox="0 0 24 24">
  <path fill="#FFF" d="M41.232,26.4 C41.328,25.608 41.4,24.816 41.4,24 C41.4,23.184 41.328,22.392 41.232,21.6 L45.288,21.6 C45.48,22.368 45.6,23.172 45.6,24 C45.6,24.828 45.48,25.632 45.288,26.4 M39.108,33.072 C39.828,31.74 40.38,30.3 40.764,28.8 L44.304,28.8 C43.152,30.78 41.316,32.316 39.108,33.072 M38.808,26.4 L33.192,26.4 C33.072,25.608 33,24.816 33,24 C33,23.184 33.072,22.38 33.192,21.6 L38.808,21.6 C38.916,22.38 39,23.184 39,24 C39,24.816 38.916,25.608 38.808,26.4 M36,33.552 C35.004,32.112 34.2,30.516 33.708,28.8 L38.292,28.8 C37.8,30.516 36.996,32.112 36,33.552 M31.2,19.2 L27.696,19.2 C28.836,17.208 30.684,15.672 32.88,14.928 C32.16,16.26 31.62,17.7 31.2,19.2 M27.696,28.8 L31.2,28.8 C31.62,30.3 32.16,31.74 32.88,33.072 C30.684,32.316 28.836,30.78 27.696,28.8 M26.712,26.4 C26.52,25.632 26.4,24.828 26.4,24 C26.4,23.172 26.52,22.368 26.712,21.6 L30.768,21.6 C30.672,22.392 30.6,23.184 30.6,24 C30.6,24.816 30.672,25.608 30.768,26.4 M36,14.436 C36.996,15.876 37.8,17.484 38.292,19.2 L33.708,19.2 C34.2,17.484 35.004,15.876 36,14.436 M44.304,19.2 L40.764,19.2 C40.38,17.7 39.828,16.26 39.108,14.928 C41.316,15.684 43.152,17.208 44.304,19.2 M36,12 C29.364,12 24,17.4 24,24 C24,30.624 29.376,36 36,36 C42.624,36 48,30.624 48,24 C48,17.376 42.624,12 36,12 Z" transform="translate(-24 -12)"/>
</svg>
