<svg width="358" height="59" viewBox="0 0 358 59" fill="none" xmlns="http://www.w3.org/2000/svg">
<path fill-rule="evenodd" clip-rule="evenodd" d="M354.441 14.1485C354.854 13.8554 355.215 13.5998 355.512 13.4285C359.017 7.48363 356.304 1.88724 350.213 1.2882C344.284 0.691847 338.163 0.713549 332.246 1.45506C306.455 4.68981 107.439 11.8313 81.4481 12.033C64.6103 12.1675 47.7763 12.9949 30.9405 13.8224C25.7228 14.0788 20.505 14.3353 15.2869 14.5711C11.7331 14.7257 8.00766 15.146 4.77387 16.4518C2.77235 17.2656 0.35514 19.9363 0.28191 21.8634C0.185974 24.0509 2.02794 26.956 3.91562 28.3923C5.78962 29.8207 8.74194 30.1395 11.2503 30.3112C15.9635 30.6436 20.7209 30.7098 25.4305 30.5114C39.7172 29.8972 54.0085 29.2409 68.3006 28.5845C81.3561 27.9849 94.4123 27.3853 107.467 26.8177C115.041 26.4877 154.617 25.1645 198.68 23.6914C257.121 21.7375 323.454 19.5198 333.492 19.005C339.035 18.7221 344.581 17.6753 350.01 16.4517C351.734 16.0662 353.291 14.9628 354.441 14.1485ZM27.9364 55.0757C28.3683 55.9734 28.8098 56.8911 29.2006 57.8466C30.4923 57.8817 31.6858 57.9572 32.8096 58.0283C35.0598 58.1707 37.0309 58.2954 38.9523 58.0427C47.8931 56.8955 56.8191 55.5209 65.7027 54.0307C67.4856 53.7314 88.3818 51.9366 113.248 49.8007C151.178 46.5427 198.344 42.4913 201 41.7447C204.591 40.7363 208.002 38.8397 207.328 34.3845C206.708 30.2156 203.074 28.9928 199.511 29.1963C189.033 29.8102 117.903 35.1748 71.6957 38.6597C52.4008 40.1149 37.4517 41.2424 33.0791 41.5593C32.3757 41.6091 31.6733 41.8782 31.0198 42.1574C27.8465 43.5163 25.4735 45.9209 25.8775 49.327C26.1049 51.2691 26.9979 53.125 27.9364 55.0757Z" fill="#EE472D"/>
</svg>
