<svg width="358" height="61" viewBox="0 0 358 61" fill="none" xmlns="http://www.w3.org/2000/svg">
<path fill-rule="evenodd" clip-rule="evenodd" d="M354.443 14.1485C354.856 13.8554 355.217 13.5998 355.514 13.4285C359.019 7.48363 356.306 1.88724 350.215 1.2882C344.286 0.691847 338.165 0.713549 332.248 1.45506C306.457 4.68981 107.441 11.8313 81.4501 12.033C64.6123 12.1675 47.7783 12.9949 30.9424 13.8224C25.7248 14.0788 20.507 14.3353 15.2888 14.5711C11.735 14.7257 8.00962 15.146 4.77582 16.4518C2.7743 17.2656 0.357093 19.9363 0.283863 21.8634C0.187927 24.0509 2.02989 26.956 3.91757 28.3923C5.79157 29.8207 8.7439 30.1395 11.2523 30.3112C15.9654 30.6436 20.7228 30.7098 25.4325 30.5114C39.7192 29.8972 54.0104 29.2409 68.3026 28.5845C81.358 27.9849 94.4143 27.3853 107.469 26.8177C115.043 26.4877 154.619 25.1645 198.682 23.6914C257.122 21.7375 323.456 19.5198 333.494 19.005C339.037 18.7221 344.583 17.6753 350.012 16.4517C351.736 16.0662 353.293 14.9628 354.443 14.1485ZM27.9384 57.0757C28.3702 57.9734 28.8118 58.8911 29.2026 59.8466C30.4942 59.8817 31.6877 59.9572 32.8116 60.0283C35.0617 60.1707 37.0329 60.2954 38.9542 60.0427C47.895 58.8955 56.8211 57.5209 65.7046 56.0307C67.4875 55.7314 88.3838 53.9366 113.25 51.8007C151.18 48.5427 198.346 44.4913 201.002 43.7447C204.593 42.7363 208.004 40.8397 207.33 36.3845C206.71 32.2156 203.076 30.9928 199.513 31.1963C189.035 31.8102 117.905 37.1748 71.6976 40.6597C52.4028 42.1149 37.4536 43.2424 33.081 43.5593C32.3776 43.6091 31.6752 43.8782 31.0217 44.1574C27.8484 45.5163 25.4755 47.9209 25.8795 51.327C26.1069 53.2691 26.9998 55.125 27.9384 57.0757Z" fill="#FF7A00"/>
</svg>
