<svg width="358" height="59" viewBox="0 0 358 59" fill="none" xmlns="http://www.w3.org/2000/svg">
<path fill-rule="evenodd" clip-rule="evenodd" d="M354.44 14.1485C354.854 13.8554 355.214 13.5998 355.511 13.4285C359.016 7.48364 356.303 1.88724 350.212 1.2882C344.284 0.691846 338.162 0.713544 332.246 1.45506C306.455 4.68981 107.439 11.8313 81.4474 12.033C64.6097 12.1675 47.7757 12.9949 30.9399 13.8224C25.7222 14.0788 20.5044 14.3353 15.2861 14.5711C11.7323 14.7257 8.00693 15.146 4.77314 16.4518C2.77161 17.2656 0.354407 19.9363 0.281178 21.8634C0.185241 24.0509 2.02721 26.956 3.91488 28.3923C5.78888 29.8207 8.74121 30.1395 11.2496 30.3112C15.9627 30.6436 20.7201 30.7098 25.4298 30.5114C39.7164 29.8972 54.0076 29.2409 68.2996 28.5845C81.3552 27.9849 94.4115 27.3853 107.466 26.8177C115.04 26.4877 154.616 25.1645 198.68 23.6914C257.12 21.7375 323.453 19.5198 333.492 19.005C339.034 18.7221 344.58 17.6753 350.009 16.4517C351.734 16.0662 353.291 14.9629 354.44 14.1485ZM26.9362 55.0757C27.368 55.9734 27.8096 56.8911 28.2004 57.8466C29.492 57.8817 30.6855 57.9572 31.8094 58.0283C34.0595 58.1707 36.0307 58.2954 37.952 58.0427C46.8928 56.8955 55.8189 55.5209 64.7024 54.0307C66.4854 53.7314 87.3816 51.9366 112.248 49.8007C150.177 46.5427 197.344 42.4913 200 41.7447C203.591 40.7363 207.002 38.8397 206.328 34.3845C205.708 30.2156 202.074 28.9928 198.51 29.1963C188.033 29.8102 116.904 35.1747 70.6971 38.6596C51.4014 40.1149 36.4516 41.2424 32.0789 41.5593C31.3755 41.6091 30.673 41.8782 30.0195 42.1574C26.8462 43.5163 24.4733 45.9209 24.8773 49.327C25.1047 51.2691 25.9976 53.125 26.9362 55.0757Z" fill="#099DDE"/>
</svg>
